<svg xmlns="http://www.w3.org/2000/svg" width="14" height="14" viewBox="0 0 14 14">
    <defs>
        <linearGradient id="4jt43yorga" x1="50%" x2="50%" y1="0%" y2="100.001%">
            <stop offset="0%" stop-color="#00B2FF"/>
            <stop offset="100%" stop-color="#006AFF"/>
        </linearGradient>
    </defs>
    <g fill="none" fill-rule="evenodd">
        <g fill-rule="nonzero">
            <g>
                <path fill="url(#4jt43yorga)" d="M7 0C3.056 0 0 2.889 0 6.79c0 2.041.837 3.805 2.199 5.023.114.103.183.245.188.398l.038 1.245c.013.398.423.655.786.496L4.6 13.34c.117-.052.25-.062.373-.029.638.177 1.319.27 2.027.27 3.944 0 7-2.89 7-6.79C14 2.888 10.944 0 7 0z" transform="translate(-5 -5) translate(5 5)"/>
                <path fill="#FFF" d="M3.051 8.44l1.932-3.564c.307-.567.966-.708 1.427-.306l1.536 1.34c.141.123.335.122.475-.002l2.075-1.831c.277-.245.64.142.453.483L9.018 8.123c-.307.566-.966.708-1.426.306l-1.537-1.34c-.14-.123-.335-.122-.475.001L3.504 8.923c-.277.245-.64-.142-.453-.483z" transform="translate(-5 -5) translate(5 5)"/>
            </g>
        </g>
    </g>
</svg>
