<svg xmlns="http://www.w3.org/2000/svg" width="14" height="14" viewBox="0 0 14 14">
    <defs>
        <linearGradient id="5pseodigla" x1="50%" x2="50%" y1="100%" y2="0%">
            <stop offset="0%" stop-color="#20B038"/>
            <stop offset="100%" stop-color="#60D66A"/>
        </linearGradient>
    </defs>
    <g fill="none" fill-rule="evenodd">
        <g>
            <g>
                <path fill="#E0E0E0" fill-rule="nonzero" d="M11.96 2.034C10.644.724 8.894.001 7.03 0 3.186 0 .06 3.112.058 6.937c0 1.223.32 2.416.93 3.468L0 14l3.695-.965c1.018.553 2.165.844 3.331.845h.003c3.842 0 6.97-3.113 6.971-6.937 0-1.854-.724-3.597-2.04-4.909zM7.03 12.708h-.003c-1.04 0-2.06-.278-2.949-.804l-.212-.125-2.192.573.585-2.128-.138-.218c-.58-.918-.886-1.98-.886-3.069.002-3.179 2.6-5.765 5.796-5.765 1.548 0 3.003.6 4.097 1.69 1.093 1.09 1.695 2.54 1.695 4.08-.001 3.18-2.6 5.766-5.794 5.766z" transform="translate(-5 -5) translate(5 5)"/>
                <path fill="url(#5pseodigla)" fill-rule="nonzero" d="M0 14l.989-3.595C.379 9.353.058 8.16.059 6.937.06 3.112 3.186 0 7.028 0c1.865 0 3.615.723 4.931 2.035C13.276 3.345 14 5.089 14 6.942c-.002 3.825-3.129 6.938-6.97 6.938h-.004c-1.166 0-2.313-.292-3.33-.845L0 14z" transform="translate(-5 -5) translate(5 5)"/>
                <path fill="#FFF" d="M5.28 3.825c-.13-.309-.265-.315-.388-.32-.1-.005-.215-.005-.33-.005-.115 0-.301.047-.46.232-.157.186-.602.635-.602 1.549 0 .914.617 1.797.703 1.92.086.124 1.192 2.06 2.942 2.804 1.455.618 1.751.495 2.067.464.316-.03 1.019-.449 1.162-.883.144-.433.144-.805.1-.882-.042-.078-.157-.124-.33-.217-.171-.093-1.018-.542-1.176-.604-.158-.062-.273-.093-.388.093-.114.186-.444.604-.545.728-.1.124-.2.14-.373.046-.172-.093-.727-.289-1.385-.921-.512-.493-.858-1.1-.958-1.286-.1-.186-.01-.287.076-.38.077-.082.172-.216.258-.324.086-.109.115-.186.172-.31.057-.124.029-.233-.014-.325-.043-.093-.378-1.012-.531-1.379z" transform="translate(-5 -5) translate(5 5)"/>
                <path fill="#FFF" fill-rule="nonzero" d="M11.96 2.034C10.644.724 8.894.001 7.03 0 3.186 0 .06 3.112.058 6.937c0 1.223.32 2.416.93 3.468L0 14l3.695-.965c1.018.553 2.165.844 3.331.845h.003c3.842 0 6.97-3.113 6.971-6.937 0-1.854-.724-3.597-2.04-4.909zM7.03 12.708h-.003c-1.04 0-2.06-.278-2.949-.804l-.212-.125-2.192.573.585-2.128-.138-.218c-.58-.918-.886-1.98-.886-3.069.002-3.179 2.6-5.765 5.796-5.765 1.548 0 3.003.6 4.097 1.69 1.093 1.09 1.695 2.54 1.695 4.08-.001 3.18-2.6 5.766-5.794 5.766z" transform="translate(-5 -5) translate(5 5)"/>
            </g>
        </g>
    </g>
</svg>
