<svg xmlns="http://www.w3.org/2000/svg" width="14" height="14" viewBox="0 0 14 14">
    <defs>
        <radialGradient id="pjdmxflw5a" cx="13.286%" cy="100.472%" r="130.547%" fx="13.286%" fy="100.472%">
            <stop offset="9%" stop-color="#FA8F21"/>
            <stop offset="78%" stop-color="#D82D7E"/>
        </radialGradient>
        <linearGradient id="9d9r43y0bb" x1="126.497%" x2="163.537%" y1="104.952%" y2="104.952%">
            <stop offset="0%" stop-color="#8C3AAA" stop-opacity="0"/>
            <stop offset="100%" stop-color="#8C3AAA"/>
        </linearGradient>
    </defs>
    <g fill="none" fill-rule="evenodd">
        <g fill-rule="nonzero">
            <g>
                <path fill="url(#pjdmxflw5a)" d="M4.667 7c0-1.289 1.045-2.334 2.333-2.334C8.29 4.666 9.334 5.711 9.334 7c0 1.289-1.045 2.334-2.334 2.334-1.288 0-2.333-1.045-2.333-2.334M3.406 7c0 1.985 1.609 3.594 3.594 3.594 1.986 0 3.595-1.609 3.595-3.594 0-1.985-1.61-3.594-3.595-3.594S3.406 5.015 3.406 7m6.491-3.737c0 .464.376.84.84.84.464 0 .84-.375.84-.84 0-.463-.376-.84-.84-.84-.464 0-.84.376-.84.84m-5.725 9.435c-.682-.031-1.053-.145-1.3-.241-.327-.127-.56-.279-.805-.524-.245-.244-.397-.477-.524-.804-.096-.247-.21-.618-.24-1.3-.034-.738-.041-.96-.041-2.829 0-1.87.007-2.09.04-2.829.032-.682.146-1.053.241-1.3.128-.327.28-.56.524-.805.245-.245.478-.397.805-.523.247-.097.618-.21 1.3-.241.738-.034.96-.041 2.828-.041 1.869 0 2.09.007 2.83.04.682.032 1.052.146 1.3.242.326.126.56.278.804.523.246.245.397.478.524.805.096.247.21.618.24 1.3.035.739.042.96.042 2.83 0 1.868-.007 2.09-.041 2.828-.031.682-.145 1.053-.241 1.3-.127.327-.279.56-.524.804-.244.245-.478.397-.805.524-.246.096-.617.21-1.3.24-.738.035-.96.042-2.829.042-1.87 0-2.09-.007-2.828-.041M4.114.042C3.37.076 2.86.194 2.415.368c-.46.178-.85.418-1.24.807-.39.389-.629.78-.807 1.24-.174.445-.292.954-.326 1.699C.008 4.86 0 5.099 0 7c0 1.901.008 2.14.042 2.886.034.745.152 1.254.326 1.7.178.46.417.85.807 1.24.39.388.78.627 1.24.806.446.174.954.292 1.7.326.746.034.984.042 2.885.042 1.901 0 2.14-.008 2.886-.042s1.255-.152 1.7-.326c.46-.179.85-.418 1.24-.807.39-.389.628-.78.807-1.24.173-.445.292-.954.325-1.699C13.992 9.139 14 8.901 14 7c0-1.901-.008-2.14-.042-2.886-.034-.745-.152-1.254-.325-1.7-.18-.46-.418-.85-.807-1.24-.39-.389-.78-.628-1.24-.806-.445-.174-.954-.292-1.7-.326C9.142.008 8.903 0 7.002 0 5.1 0 4.86.008 4.114.042" transform="translate(-5 -5) translate(5 5)"/>
                <path fill="url(#9d9r43y0bb)" d="M4.667 7c0-1.289 1.045-2.334 2.333-2.334C8.29 4.666 9.334 5.711 9.334 7c0 1.289-1.045 2.334-2.334 2.334-1.288 0-2.333-1.045-2.333-2.334M3.406 7c0 1.985 1.609 3.594 3.594 3.594 1.986 0 3.595-1.609 3.595-3.594 0-1.985-1.61-3.594-3.595-3.594S3.406 5.015 3.406 7m6.491-3.737c0 .464.376.84.84.84.464 0 .84-.375.84-.84 0-.463-.376-.84-.84-.84-.464 0-.84.376-.84.84m-5.725 9.435c-.682-.031-1.053-.145-1.3-.241-.327-.127-.56-.279-.805-.524-.245-.244-.397-.477-.524-.804-.096-.247-.21-.618-.24-1.3-.034-.738-.041-.96-.041-2.829 0-1.87.007-2.09.04-2.829.032-.682.146-1.053.241-1.3.128-.327.28-.56.524-.805.245-.245.478-.397.805-.523.247-.097.618-.21 1.3-.241.738-.034.96-.041 2.828-.041 1.869 0 2.09.007 2.83.04.682.032 1.052.146 1.3.242.326.126.56.278.804.523.246.245.397.478.524.805.096.247.21.618.24 1.3.035.739.042.96.042 2.83 0 1.868-.007 2.09-.041 2.828-.031.682-.145 1.053-.241 1.3-.127.327-.279.56-.524.804-.244.245-.478.397-.805.524-.246.096-.617.21-1.3.24-.738.035-.96.042-2.829.042-1.87 0-2.09-.007-2.828-.041M4.114.042C3.37.076 2.86.194 2.415.368c-.46.178-.85.418-1.24.807-.39.389-.629.78-.807 1.24-.174.445-.292.954-.326 1.699C.008 4.86 0 5.099 0 7c0 1.901.008 2.14.042 2.886.034.745.152 1.254.326 1.7.178.46.417.85.807 1.24.39.388.78.627 1.24.806.446.174.954.292 1.7.326.746.034.984.042 2.885.042 1.901 0 2.14-.008 2.886-.042s1.255-.152 1.7-.326c.46-.179.85-.418 1.24-.807.39-.389.628-.78.807-1.24.173-.445.292-.954.325-1.699C13.992 9.139 14 8.901 14 7c0-1.901-.008-2.14-.042-2.886-.034-.745-.152-1.254-.325-1.7-.18-.46-.418-.85-.807-1.24-.39-.389-.78-.628-1.24-.806-.445-.174-.954-.292-1.7-.326C9.142.008 8.903 0 7.002 0 5.1 0 4.86.008 4.114.042" transform="translate(-5 -5) translate(5 5)"/>
            </g>
        </g>
    </g>
</svg>
